# xmcd CD database file
#
# Track frame offsets:
#	150
#	26279
#	48574
#	69743
#	93725
#	108081
#	135937
#	152499
#	178966
#	203713
#	218522
#	242462
#	272307
#
# Disc length: 4393 seconds
#
# Revision: 0
# Processed by: cddbd v1.5.2PL0 Copyright (c) Steve Scherf et al.
# Submitted via: CDex 1.70beta2
#
DISCID=a511270d
DTITLE=Erik Truffaz - Arkhangelsk
DYEAR=2007
DGENRE=Jazz
TTITLE0=Miss Kaba
TTITLE1=Red Cloud
TTITLE2=Trippin' The Lovelight Fantastic
TTITLE3=Snake Charmer Man
TTITLE4=Nobody Puts Baby In The Corner
TTITLE5=Les Nuits De Monsieur Naj
TTITLE6=Arkhangelsk
TTITLE7=L'Un Dans L'Autre
TTITLE8=Akiko
TTITLE9=Entre Le Ciel Et L'Eau
TTITLE10=Anonymus
TTITLE11=Manon
TTITLE12=Videos
EXTD=YEAR: 2007
EXTT0=
EXTT1=
EXTT2=
EXTT3=
EXTT4=
EXTT5=
EXTT6=
EXTT7=
EXTT8=
EXTT9=
EXTT10=
EXTT11=
EXTT12=
PLAYORDER=
